name C:\Users\u0101727\Documents\MyRepositories\upper-imu-dc\Results\main_tracking\Case_10\FLX01_angularVelocities_bodyFrame.mot
datacolumns 4
datarows 82
range 2.01000000 2.82000000
endheader 
time	radius_imu_x	radius_imu_y	radius_imu_z	
          2.01000000	         -0.83612912	          0.04467336	         -0.85930453	
          2.02000000	         -0.84913011	          0.21871286	         -0.85423756	
          2.03000000	         -0.86334722	          0.42528493	         -0.84990911	
          2.04000000	         -0.87560495	          0.62965172	         -0.84543609	
          2.05000000	         -0.88338940	          0.79868754	         -0.83983385	
          2.06000000	         -0.88548900	          0.90965993	         -0.83234682	
          2.07000000	         -0.88218266	          0.95513603	         -0.82267136	
          2.08000000	         -0.87487821	          0.94168314	         -0.81097289	
          2.09000000	         -0.86534133	          0.88293546	         -0.79769507	
          2.10000000	         -0.85487293	          0.79079383	         -0.78326857	
          2.11000000	         -0.84392108	          0.67064376	         -0.76791777	
          2.12000000	         -0.83240405	          0.52437868	         -0.75172769	
          2.13000000	         -0.82048867	          0.35872534	         -0.73493952	
          2.14000000	         -0.80923458	          0.19213201	         -0.71827482	
          2.15000000	         -0.80068133	          0.05521802	         -0.70309187	
          2.16000000	         -0.79731268	         -0.01596305	         -0.69127137	
          2.17000000	         -0.80108930	          0.00846063	         -0.68482200	
          2.18000000	         -0.81244691	          0.14018785	         -0.68531695	
          2.19000000	         -0.82979783	          0.36632958	         -0.69340627	
          2.20000000	         -0.84988166	          0.65243703	         -0.70864906	
          2.21000000	         -0.86876041	          0.95298058	         -0.72970592	
          2.22000000	         -0.88287637	          1.22316159	         -0.75472132	
          2.23000000	         -0.88972098	          1.42719152	         -0.78169462	
          2.24000000	         -0.88801752	          1.54186048	         -0.80873472	
          2.25000000	         -0.87757433	          1.55654939	         -0.83419664	
          2.26000000	         -0.85901813	          1.47134982	         -0.85674521	
          2.27000000	         -0.83353844	          1.29456442	         -0.87538336	
          2.28000000	         -0.80268180	          1.04030002	         -0.88945978	
          2.29000000	         -0.76819106	          0.72650480	         -0.89865888	
          2.30000000	         -0.73189637	          0.37370902	         -0.90298339	
          2.31000000	         -0.69567966	          0.00469474	         -0.90274898	
          2.32000000	         -0.66150396	         -0.35501912	         -0.89859889	
          2.33000000	         -0.63143825	         -0.67658394	         -0.89151980	
          2.34000000	         -0.60756890	         -0.92830095	         -0.88281871	
          2.35000000	         -0.59171183	         -1.07838304	         -0.87401952	
          2.36000000	         -0.58493208	         -1.10057697	         -0.86665888	
          2.37000000	         -0.58699897	         -0.98191469	         -0.86199108	
          2.38000000	         -0.59602122	         -0.72994664	         -0.86066134	
          2.39000000	         -0.60856519	         -0.37514118	         -0.86248289	
          2.40000000	         -0.62038217	          0.03455090	         -0.86646229	
          2.41000000	         -0.62745889	          0.44503039	         -0.87108109	
          2.42000000	         -0.62689024	          0.80775815	         -0.87468711	
          2.43000000	         -0.61728751	          1.08765426	         -0.87583547	
          2.44000000	         -0.59875725	          1.26626875	         -0.87350318	
          2.45000000	         -0.57261783	          1.34106375	         -0.86717152	
          2.46000000	         -0.54101055	          1.32213446	         -0.85681002	
          2.47000000	         -0.50651818	          1.22788132	         -0.84281113	
          2.48000000	         -0.47184718	          1.08091890	         -0.82590943	
          2.49000000	         -0.43956998	          0.90478695	         -0.80709060	
          2.50000000	         -0.41189878	          0.72140224	         -0.78748463	
          2.51000000	         -0.39048528	          0.54909757	         -0.76824668	
          2.52000000	         -0.37627484	          0.40128118	         -0.75043747	
          2.53000000	         -0.36944920	          0.28582928	         -0.73491534	
          2.54000000	         -0.36947002	          0.20525510	         -0.72225238	
          2.55000000	         -0.37520774	          0.15757375	         -0.71268470	
          2.56000000	         -0.38512384	          0.13764670	         -0.70610299	
          2.57000000	         -0.39747215	          0.13870010	         -0.70208699	
          2.58000000	         -0.41049711	          0.15372239	         -0.69998598	
          2.59000000	         -0.42262503	          0.17654230	         -0.69904075	
          2.60000000	         -0.43264185	          0.20246250	         -0.69852555	
          2.61000000	         -0.43982562	          0.22837107	         -0.69787048	
          2.62000000	         -0.44398841	          0.25240287	         -0.69672503	
          2.63000000	         -0.44540850	          0.27342786	         -0.69495032	
          2.64000000	         -0.44468085	          0.29067786	         -0.69256119	
          2.65000000	         -0.44254326	          0.30366502	         -0.68965833	
          2.66000000	         -0.43973130	          0.31237060	         -0.68638542	
          2.67000000	         -0.43688165	          0.31756070	         -0.68292022	
          2.68000000	         -0.43447025	          0.32095838	         -0.67948185	
          2.69000000	         -0.43276603	          0.32496973	         -0.67632952	
          2.70000000	         -0.43180078	          0.33191232	         -0.67374203	
          2.71000000	         -0.43137167	          0.34309865	         -0.67198339	
          2.72000000	         -0.43108895	          0.35829253	         -0.67126350	
          2.73000000	         -0.43046375	          0.37582825	         -0.67170160	
          2.74000000	         -0.42901335	          0.39325800	         -0.67330037	
          2.75000000	         -0.42635118	          0.40810968	         -0.67593820	
          2.76000000	         -0.42223408	          0.41840049	         -0.67938087	
          2.77000000	         -0.41655953	          0.42284957	         -0.68330680	
          2.78000000	         -0.40933405	          0.42095573	         -0.68733757	
          2.79000000	         -0.40064831	          0.41306993	         -0.69106855	
          2.80000000	         -0.39067752	          0.40040537	         -0.69410028	
          2.81000000	         -0.37969294	          0.38482531	         -0.69607348	
          2.82000000	         -0.36805069	          0.36833191	         -0.69670449	
